<svg width="1440" height="1024" viewBox="0 0 1440 1024" fill="none" xmlns="http://www.w3.org/2000/svg">
<path d="M4 4H1436V1020H4V4Z" fill="#F5EEDC" stroke="#DC143C" stroke-width="8"/>
<path fill-rule="evenodd" clip-rule="evenodd" d="M0 979L0 934H45V979H0ZM90 979V1024H45V979H90ZM135 979H90V934H135V979ZM180 979V1024H135V979H180ZM225 979H180V934H225V979ZM270 979H225V1024H270V979ZM315 979H270V934H315V979ZM315 979H360V1024H315V979Z" fill="#DC143C"/>
<path fill-rule="evenodd" clip-rule="evenodd" d="M360 979V934H405V979H360ZM450 979V1024H405V979H450ZM495 979H450V934H495V979ZM540 979V1024H495V979H540ZM585 979H540V934H585V979ZM630 979H585V1024H630V979ZM675 979H630V934H675V979ZM675 979H720V1024H675V979Z" fill="#DC143C"/>
<path fill-rule="evenodd" clip-rule="evenodd" d="M720 979V934H765V979H720ZM810 979V1024H765V979H810ZM855 979H810V934H855V979ZM900 979V1024H855V979H900ZM945 979H900V934H945V979ZM990 979H945V1024H990V979ZM1035 979H990V934H1035V979ZM1035 979H1080V1024H1035V979Z" fill="#DC143C"/>
<path fill-rule="evenodd" clip-rule="evenodd" d="M1080 979V934H1125V979H1080ZM1170 979V1024H1125V979H1170ZM1215 979H1170V934H1215V979ZM1260 979V1024H1215V979H1260ZM1305 979H1260V934H1305V979ZM1350 979H1305V1024H1350V979ZM1395 979H1350V934H1395V979ZM1395 979H1440V1024H1395V979Z" fill="#DC143C"/>
<path fill-rule="evenodd" clip-rule="evenodd" d="M0 45L0 0H45V45H0ZM90 45V90H45V45H90ZM135 45L90 45V0H135V45ZM180 45V90H135V45H180ZM225 45H180V0L225 0V45ZM270 45H225V90H270V45ZM315 45L270 45V0H315V45ZM315 45H360V90H315V45Z" fill="#DC143C"/>
<path fill-rule="evenodd" clip-rule="evenodd" d="M360 45V0H405V45H360ZM450 45V90H405V45H450ZM495 45L450 45V0H495V45ZM540 45V90H495V45H540ZM585 45H540V0L585 0V45ZM630 45H585V90H630V45ZM675 45L630 45V0H675V45ZM675 45H720V90H675V45Z" fill="#DC143C"/>
<path fill-rule="evenodd" clip-rule="evenodd" d="M720 45V0H765V45H720ZM810 45V90H765V45H810ZM855 45L810 45V0H855V45ZM900 45V90H855V45H900ZM945 45H900V0L945 0V45ZM990 45H945V90H990V45ZM1035 45L990 45V0H1035V45ZM1035 45H1080V90H1035V45Z" fill="#DC143C"/>
<path fill-rule="evenodd" clip-rule="evenodd" d="M1080 45V0H1125V45H1080ZM1170 45V90H1125V45H1170ZM1215 45L1170 45V0H1215V45ZM1260 45V90H1215V45H1260ZM1305 45H1260V0L1305 0V45ZM1350 45H1305V90H1350V45ZM1395 45L1350 45V0H1395V45ZM1395 45H1440V90H1395V45Z" fill="#DC143C"/>
</svg>
