<svg width="1440" height="90" viewBox="0 0 1440 90" fill="none" xmlns="http://www.w3.org/2000/svg">
<path fill-rule="evenodd" clip-rule="evenodd" d="M0 45L0 0H45V45H0ZM90 45V90H45V45H90ZM135 45L90 45V0H135V45ZM180 45V90H135V45H180ZM225 45H180V0L225 0V45ZM270 45H225V90H270V45ZM315 45L270 45V0H315V45ZM360 45V90H315V45H360ZM405 45V0H360V45H405ZM450 45H405V90H450V45ZM495 45V0H450V45H495ZM540 45L495 45V90H540V45ZM585 45V0H540V45H585ZM630 45H585V90L630 90V45ZM675 45V0H630V45H675ZM720 45L675 45V90H720V45ZM765 45V0H720V45H765ZM810 45H765V90H810V45ZM855 45V0H810V45H855ZM900 45H855V90H900V45ZM945 45V0H900V45L945 45ZM990 45H945V90H990V45ZM1035 45V0L990 0V45H1035ZM1080 45H1035V90H1080V45ZM1125 45V0H1080V45H1125ZM1170 45L1125 45V90H1170V45ZM1215 45V0H1170V45H1215ZM1260 45H1215V90H1260V45ZM1305 45V0H1260V45H1305ZM1350 45L1305 45V90H1350V45ZM1395 45V0H1350V45H1395ZM1395 45V90L1440 90V45H1395Z" fill="#DC143C"/>
</svg>
